# xmcd CD database file
#
# Track frame offsets:
#	150
#	14800
#	29895
#	43525
#	61432
#	73978
#	92238
#	105265
#	117836
#	135221
#
# Disc length: 1974 seconds
#
# Revision: 0
# Processed by: cddbd v1.5PL3 Copyright (c) Steve Scherf et al.
# Submitted via: CDex 1.50
#
DISCID=8c07b40a
DTITLE=Les Amis du Country - La Moisie
DYEAR=2001
DGENRE=Country
TTITLE0=La Moisie
TTITLE1=Y'a que toi
TTITLE2=Look what followed me home
TTITLE3=Ensemble pour toujours
TTITLE4=Le ford à mon grand-père
TTITLE5=Pour mon Papa
TTITLE6=Thinkin' problem
TTITLE7=Okie from Muskogee
TTITLE8=I can't stop lovin you
TTITLE9=I don't care
EXTD=YEAR: 2001
EXTT0=
EXTT1=
EXTT2=
EXTT3=
EXTT4=
EXTT5=
EXTT6=
EXTT7=
EXTT8=
EXTT9=
PLAYORDER=
